<svg xmlns="http://www.w3.org/2000/svg" version="1.1" xmlns:xlink="http://www.w3.org/1999/xlink" xmlns:svgjs="http://svgjs.com/svgjs" width="512" height="512" x="0" y="0" viewBox="0 0 512 512" style="enable-background:new 0 0 512 512" xml:space="preserve" class=""><g><path d="M129.038 0c-5.523 0-10.001 4.479-10.001 10.001 0 5.523 4.478 10.001 10.001 10.001 56.493 0 102.453 47.153 102.453 105.115 0 5.523 4.479 10.001 10.001 10.001 5.523 0 10.001-4.479 10.001-10.001C251.494 56.127 196.56 0 129.038 0z" fill="#FDA31B" data-original="#000000" class=""></path><path d="M129.005 47.447c-5.523 0-10.001 4.479-10.001 10.001 0 5.523 4.478 10.001 10.001 10.001 30.935 0 56.102 25.869 56.102 57.666 0 5.523 4.479 10.001 10.001 10.001 5.523 0 10.001-4.479 10.001-10.001.001-42.826-34.14-77.668-76.104-77.668z" fill="#FDA31B" data-original="#000000" class=""></path><path d="M129.199 91.155c-5.524 0-10.001 4.477-10.001 10.001 0 5.523 4.479 10.001 10.001 10.001 7.227 0 13.105 6.124 13.105 13.652 0 5.523 4.478 10.001 10.001 10.001s10.001-4.479 10.001-10.001c.001-18.557-14.852-33.654-33.107-33.654zM458.489 79.265H436.32c-5.523 0-10.001 4.478-10.001 10.001s4.478 10.001 10.001 10.001h22.169c18.474 0 33.504 15.03 33.504 33.504V268.53c0 10.637-4.989 20.124-12.742 26.266v-26.154c0-20.404-14.559-37.929-34.617-41.67l-6.465-1.205a45.13 45.13 0 0 0 2.231-14.025V188.76c0-24.989-20.33-45.319-45.319-45.319s-45.318 20.33-45.318 45.319v22.982c0 4.895.79 9.605 2.231 14.025l-6.465 1.205c-20.059 3.74-34.617 21.265-34.617 41.67v28.993c-10.108-5.775-16.941-16.654-16.941-29.105V132.771c0-18.474 15.03-33.504 33.504-33.504h23.836c5.523 0 10.001-4.478 10.001-10.001s-4.479-10.001-10.001-10.001h-23.836c-29.503 0-53.506 24.003-53.506 53.506V268.53c0 29.503 24.003 53.506 53.506 53.506h50.326v28.755a9.999 9.999 0 0 0 9.999 10.001c2.592 0 5.141-1.008 7.052-2.906l36.076-35.85h27.561c29.503 0 53.506-24.003 53.506-53.506V132.771c0-29.503-24.003-53.506-53.506-53.506zM369.764 188.76c0-13.96 11.356-25.317 25.316-25.317s25.317 11.357 25.317 25.317v22.982c0 13.96-11.357 25.317-25.317 25.317s-25.316-11.357-25.316-25.317V188.76zm89.482 113.253c-.253.006-.504.019-.759.019h-31.683v.002a10.005 10.005 0 0 0-7.05 2.906l-21.951 21.814v-14.72c0-5.523-4.479-10.001-10.001-10.001h-56.887v-33.392c0-10.775 7.689-20.031 18.281-22.007l14.099-2.629c8.186 8.067 19.412 13.055 31.786 13.055 12.373 0 23.601-4.99 31.787-13.056l14.1 2.629c10.593 1.976 18.281 11.231 18.281 22.008v33.372z" fill="#FDA31B" data-original="#000000" class=""></path><path d="M396.051 82.199a10.031 10.031 0 0 0-7.07-2.93c-2.63 0-5.211 1.06-7.071 2.93a10.046 10.046 0 0 0-2.93 7.071c0 2.63 1.069 5.211 2.93 7.071a10.08 10.08 0 0 0 7.071 2.93c2.63 0 5.211-1.07 7.07-2.93a10.095 10.095 0 0 0 2.931-7.071c0-2.64-1.07-5.211-2.931-7.071zM185.878 336.437a10.059 10.059 0 0 0-7.071-2.93c-2.63 0-5.211 1.07-7.07 2.93a10.077 10.077 0 0 0-2.931 7.071c0 2.64 1.07 5.211 2.931 7.071a10.058 10.058 0 0 0 7.07 2.939 10.02 10.02 0 0 0 10.001-10.01c0-2.63-1.06-5.21-2.93-7.071z" fill="#FDA31B" data-original="#000000" class=""></path><path d="m404.784 426.87-76.62-76.621c-10.2-10.2-26.246-11.692-38.15-3.551l-48.902 33.438a10.005 10.005 0 0 1-12.716-1.185l-16.171-16.172c-3.904-3.903-10.235-3.904-14.145 0-3.905 3.905-3.905 10.237 0 14.145l16.171 16.172c10.2 10.199 26.244 11.694 38.15 3.551l48.902-33.437a10.005 10.005 0 0 1 12.716 1.184l76.621 76.621c3.899 3.898 3.898 10.244-.001 14.145-49.132 49.132-129.077 49.132-178.209 0L56.848 299.576c-23.802-23.801-36.908-55.445-36.908-89.105s13.107-65.305 36.909-89.107a9.933 9.933 0 0 1 7.071-2.928 9.933 9.933 0 0 1 7.072 2.929l76.62 76.621a10.009 10.009 0 0 1 1.185 12.716l-33.436 48.902c-8.143 11.905-6.649 27.949 3.55 38.15l24.308 24.308c3.906 3.904 10.237 3.904 14.145 0 3.905-3.905 3.905-10.238 0-14.145l-24.308-24.308a10.006 10.006 0 0 1-1.184-12.715l33.437-48.902c8.141-11.906 6.647-27.951-3.552-38.15l-76.62-76.621c-11.698-11.698-30.733-11.698-42.433 0-56.931 56.932-56.931 149.567 0 206.499l155.582 155.581C226.752 497.767 264.143 512 301.534 512c37.392-.001 74.783-14.234 103.249-42.699 11.698-11.698 11.698-30.732.001-42.431z" fill="#FDA31B" data-original="#000000" class=""></path><path d="m134.727 245.919-60.626-60.626c-3.907-3.904-10.238-3.904-14.145 0-3.905 3.906-3.905 10.239 0 14.145l60.627 60.626a9.971 9.971 0 0 0 7.072 2.929 9.975 9.975 0 0 0 7.072-2.929c3.905-3.906 3.905-10.239 0-14.145zM366.761 477.952l-63.789-63.789c-3.907-3.904-10.238-3.904-14.145 0-3.905 3.906-3.905 10.239 0 14.145l63.789 63.789a9.971 9.971 0 0 0 7.072 2.929 9.979 9.979 0 0 0 7.073-2.929c3.905-3.907 3.905-10.239 0-14.145z" fill="#FDA31B" data-original="#000000" class=""></path></g></svg>