<svg xmlns="http://www.w3.org/2000/svg" version="1.1" xmlns:xlink="http://www.w3.org/1999/xlink" xmlns:svgjs="http://svgjs.com/svgjs" width="512" height="512" x="0" y="0" viewBox="0 0 682.667 682.667" style="enable-background:new 0 0 512 512" xml:space="preserve" class=""><g><defs><clipPath id="a" clipPathUnits="userSpaceOnUse"><path d="M0 512h512V0H0Z" fill="#FDA31B" data-original="#000000"></path></clipPath><clipPath id="b" clipPathUnits="userSpaceOnUse"><path d="M0 512h512V0H0Z" fill="#FDA31B" data-original="#000000"></path></clipPath></defs><g clip-path="url(#a)" transform="matrix(1.33333 0 0 -1.33333 0 682.667)"><path d="M0 0c-113.742 56.422-161.756 160.269-174.175 191.951-1.971 5.027-8.134 6.911-12.633 3.884-20.003-13.459-62.105-50.7-16.171-103.538 0 0-60.364-80.656 25.373-125.86 0 0-16.915-92.296 109.946-83.906" style="stroke-width:15;stroke-linecap:round;stroke-linejoin:round;stroke-miterlimit:10;stroke-dasharray:none;stroke-opacity:1" transform="translate(763.15 307.209)" fill="none" stroke="#FDA31B" stroke-width="15" stroke-linecap="round" stroke-linejoin="round" stroke-miterlimit="10" stroke-dasharray="none" stroke-opacity="" data-original="#000000" class=""></path></g><g clip-path="url(#b)" transform="matrix(1.33333 0 0 -1.33333 0 682.667)"><path d="m0 0 42.156-73.034c2.827-4.897.027-11.124-5.512-12.258L-.717-92.937a8.275 8.275 0 0 1-4.537-2.62l-25.302-28.532c-3.751-4.23-10.544-3.542-13.371 1.355l-45.334 78.7" style="stroke-width:15;stroke-linecap:round;stroke-linejoin:round;stroke-miterlimit:10;stroke-dasharray:none;stroke-opacity:1" transform="translate(345.284 134.377)" fill="none" stroke="#FDA31B" stroke-width="15" stroke-linecap="round" stroke-linejoin="round" stroke-miterlimit="10" stroke-dasharray="none" stroke-opacity="" data-original="#0c0a0b" class=""></path><path d="m0 0-44.086 76.36" style="stroke-width:15;stroke-linecap:round;stroke-linejoin:round;stroke-miterlimit:10;stroke-dasharray:none;stroke-opacity:1" transform="translate(330.055 28.203)" fill="none" stroke="#FDA31B" stroke-width="15" stroke-linecap="round" stroke-linejoin="round" stroke-miterlimit="10" stroke-dasharray="none" stroke-opacity="" data-original="#0c0a0b" class=""></path><path d="m0 0-39.888 69.088" style="stroke-width:15;stroke-linecap:round;stroke-linejoin:round;stroke-miterlimit:10;stroke-dasharray:none;stroke-opacity:1" transform="translate(358.749 44.77)" fill="none" stroke="#FDA31B" stroke-width="15" stroke-linecap="round" stroke-linejoin="round" stroke-miterlimit="10" stroke-dasharray="none" stroke-opacity="" data-original="#0c0a0b" class=""></path><path d="m0 0-42.179-72.989c-2.827-4.897-.026-11.124 5.513-12.258l37.36-7.645a8.275 8.275 0 0 0 4.537-2.62l25.302-28.532c3.751-4.23 10.544-3.542 13.371 1.355l45.334 78.7" style="stroke-width:15;stroke-linecap:round;stroke-linejoin:round;stroke-miterlimit:10;stroke-dasharray:none;stroke-opacity:1" transform="translate(166.785 134.332)" fill="none" stroke="#FDA31B" stroke-width="15" stroke-linecap="round" stroke-linejoin="round" stroke-miterlimit="10" stroke-dasharray="none" stroke-opacity="" data-original="#0c0a0b" class=""></path><path d="m0 0 44.086 76.36" style="stroke-width:15;stroke-linecap:round;stroke-linejoin:round;stroke-miterlimit:10;stroke-dasharray:none;stroke-opacity:1" transform="translate(181.991 28.203)" fill="none" stroke="#FDA31B" stroke-width="15" stroke-linecap="round" stroke-linejoin="round" stroke-miterlimit="10" stroke-dasharray="none" stroke-opacity="" data-original="#0c0a0b" class=""></path><path d="m0 0 39.888 69.088" style="stroke-width:15;stroke-linecap:round;stroke-linejoin:round;stroke-miterlimit:10;stroke-dasharray:none;stroke-opacity:1" transform="translate(153.297 44.77)" fill="none" stroke="#FDA31B" stroke-width="15" stroke-linecap="round" stroke-linejoin="round" stroke-miterlimit="10" stroke-dasharray="none" stroke-opacity="" data-original="#0c0a0b" class=""></path><path d="M0 0c0-36.598-29.669-66.267-66.267-66.267S-132.534-36.598-132.534 0s29.669 66.267 66.267 66.267S0 36.598 0 0Z" style="stroke-width:15;stroke-linecap:round;stroke-linejoin:round;stroke-miterlimit:10;stroke-dasharray:none;stroke-opacity:1" transform="translate(322.29 206.31)" fill="none" stroke="#FDA31B" stroke-width="15" stroke-linecap="round" stroke-linejoin="round" stroke-miterlimit="10" stroke-dasharray="none" stroke-opacity="" data-original="#0c0a0b" class=""></path><path d="M0 0c0-18.299-14.834-33.134-33.133-33.134-18.299 0-33.134 14.835-33.134 33.134s14.835 33.134 33.134 33.134S0 18.299 0 0Z" style="stroke-width:15;stroke-linecap:round;stroke-linejoin:round;stroke-miterlimit:10;stroke-dasharray:none;stroke-opacity:1" transform="translate(289.156 206.31)" fill="none" stroke="#FDA31B" stroke-width="15" stroke-linecap="round" stroke-linejoin="round" stroke-miterlimit="10" stroke-dasharray="none" stroke-opacity="" data-original="#0c0a0b" class=""></path><path d="M0 0h4.142" style="stroke-width:15;stroke-linecap:round;stroke-linejoin:round;stroke-miterlimit:10;stroke-dasharray:none;stroke-opacity:1" transform="translate(253.952 206.31)" fill="none" stroke="#FDA31B" stroke-width="15" stroke-linecap="round" stroke-linejoin="round" stroke-miterlimit="10" stroke-dasharray="none" stroke-opacity="" data-original="#0c0a0b" class=""></path><path d="M0 0c0 12.668-6.095 23.91-15.512 30.959a19.276 19.276 0 0 0-7.53 18.18c1.675 11.642-1.965 23.901-10.923 32.859-8.957 8.957-21.217 12.597-32.859 10.922a19.279 19.279 0 0 0-18.18 7.53c-7.048 9.417-18.291 15.512-30.958 15.512-12.668 0-23.911-6.095-30.959-15.512a19.277 19.277 0 0 0-18.179-7.53c-11.643 1.675-23.902-1.965-32.86-10.922-8.957-8.958-12.597-21.217-10.922-32.859a19.276 19.276 0 0 0-7.531-18.18C-225.83 23.91-231.924 12.668-231.924 0s6.094-23.91 15.511-30.958a19.277 19.277 0 0 0 7.531-18.18c-1.675-11.642 1.965-23.902 10.922-32.859 8.958-8.958 21.217-12.598 32.86-10.923a19.277 19.277 0 0 0 18.179-7.53c7.048-9.417 18.291-15.512 30.959-15.512 12.667 0 23.91 6.095 30.958 15.512a19.279 19.279 0 0 0 18.18 7.53c11.642-1.675 23.902 1.965 32.859 10.923 8.958 8.957 12.598 21.217 10.923 32.859a19.277 19.277 0 0 0 7.53 18.18C-6.095-23.91 0-12.668 0 0Z" style="stroke-width:15;stroke-linecap:round;stroke-linejoin:round;stroke-miterlimit:10;stroke-dasharray:none;stroke-opacity:1" transform="translate(371.985 206.305)" fill="none" stroke="#FDA31B" stroke-width="15" stroke-linecap="round" stroke-linejoin="round" stroke-miterlimit="10" stroke-dasharray="none" stroke-opacity="" data-original="#0c0a0b" class=""></path><path d="m0 0-24.869-2.765c-8.541-.949-16.39 4.79-18.075 13.217l-.002.007a346.374 346.374 0 0 0 0 135.863l.002.009c1.685 8.426 9.533 14.165 18.073 13.217l132.219-14.683" style="stroke-width:15;stroke-linecap:round;stroke-linejoin:round;stroke-miterlimit:10;stroke-dasharray:none;stroke-opacity:1" transform="translate(57.195 127.91)" fill="none" stroke="#FDA31B" stroke-width="15" stroke-linecap="round" stroke-linejoin="round" stroke-miterlimit="10" stroke-dasharray="none" stroke-opacity="" data-original="#0c0a0b" class=""></path><path d="m0 0-77.435-8.608" style="stroke-width:15;stroke-linecap:round;stroke-linejoin:round;stroke-miterlimit:10;stroke-dasharray:none;stroke-opacity:1" transform="translate(164.541 139.844)" fill="none" stroke="#FDA31B" stroke-width="15" stroke-linecap="round" stroke-linejoin="round" stroke-miterlimit="10" stroke-dasharray="none" stroke-opacity="" data-original="#0c0a0b" class=""></path><path d="m0 0 132.401 13.991c8.54.948 16.388-4.79 18.074-13.216a346.412 346.412 0 0 0 .003-135.863l-.003-.016c-1.686-8.427-9.535-14.167-18.077-13.217L.003-134.313" style="stroke-width:15;stroke-linecap:round;stroke-linejoin:round;stroke-miterlimit:10;stroke-dasharray:none;stroke-opacity:1" transform="translate(347.274 273.466)" fill="none" stroke="#FDA31B" stroke-width="15" stroke-linecap="round" stroke-linejoin="round" stroke-miterlimit="10" stroke-dasharray="none" stroke-opacity="" data-original="#0c0a0b" class=""></path><path d="m0 0 157.159 14.845c9.721.918 18.124-6.729 18.124-16.493v-17.717" style="stroke-width:15;stroke-linecap:round;stroke-linejoin:round;stroke-miterlimit:10;stroke-dasharray:none;stroke-opacity:1" transform="translate(287.823 305.71)" fill="none" stroke="#FDA31B" stroke-width="15" stroke-linecap="round" stroke-linejoin="round" stroke-miterlimit="10" stroke-dasharray="none" stroke-opacity="" data-original="#0c0a0b" class=""></path><path d="M0 0v17.717c0 9.764 8.403 17.411 18.125 16.493l157.158-14.845" style="stroke-width:15;stroke-linecap:round;stroke-linejoin:round;stroke-miterlimit:10;stroke-dasharray:none;stroke-opacity:1" transform="translate(48.94 286.345)" fill="none" stroke="#FDA31B" stroke-width="15" stroke-linecap="round" stroke-linejoin="round" stroke-miterlimit="10" stroke-dasharray="none" stroke-opacity="" data-original="#0c0a0b" class=""></path><path d="M0 0h-117.1c-8.837 0-16 7.164-16 16v58.834a8 8 0 0 0 8 8H8a8 8 0 0 0 8-8V16C16 7.164 8.837 0 0 0Z" style="stroke-width:15;stroke-linecap:round;stroke-linejoin:round;stroke-miterlimit:10;stroke-dasharray:none;stroke-opacity:1" transform="translate(314.573 355.4)" fill="none" stroke="#FDA31B" stroke-width="15" stroke-linecap="round" stroke-linejoin="round" stroke-miterlimit="10" stroke-dasharray="none" stroke-opacity="" data-original="#000000" class=""></path><path d="M0 0h149.1" style="stroke-width:15;stroke-linecap:round;stroke-linejoin:round;stroke-miterlimit:10;stroke-dasharray:none;stroke-opacity:1" transform="translate(181.473 388.533)" fill="none" stroke="#FDA31B" stroke-width="15" stroke-linecap="round" stroke-linejoin="round" stroke-miterlimit="10" stroke-dasharray="none" stroke-opacity="" data-original="#000000" class=""></path><path d="m0 0-25.589-11.373c-6.559-2.915-6.559-12.224 0-15.139L31.93-52.076" style="stroke-width:15;stroke-linecap:round;stroke-linejoin:round;stroke-miterlimit:10;stroke-dasharray:none;stroke-opacity:1" transform="translate(149.543 457.957)" fill="none" stroke="#FDA31B" stroke-width="15" stroke-linecap="round" stroke-linejoin="round" stroke-miterlimit="10" stroke-dasharray="none" stroke-opacity="" data-original="#000000" class=""></path><path d="m0 0 57.519 25.564c6.559 2.915 6.559 12.224 0 15.139L-71.187 97.905a8.28 8.28 0 0 1-6.727 0l-73.116-32.496" style="stroke-width:15;stroke-linecap:round;stroke-linejoin:round;stroke-miterlimit:10;stroke-dasharray:none;stroke-opacity:1" transform="translate(330.573 405.88)" fill="none" stroke="#FDA31B" stroke-width="15" stroke-linecap="round" stroke-linejoin="round" stroke-miterlimit="10" stroke-dasharray="none" stroke-opacity="" data-original="#000000" class=""></path><path d="M0 0c0 9.415-7.854 16.996-17.367 16.548-8.911-.419-15.766-8.095-15.766-17.016V-16.8a8.283 8.283 0 0 1 8.283-8.284h16.567A8.283 8.283 0 0 1 0-16.8z" style="stroke-width:15;stroke-linecap:round;stroke-linejoin:round;stroke-miterlimit:10;stroke-dasharray:none;stroke-opacity:1" transform="translate(140.056 380.483)" fill="none" stroke="#FDA31B" stroke-width="15" stroke-linecap="round" stroke-linejoin="round" stroke-miterlimit="10" stroke-dasharray="none" stroke-opacity="" data-original="#000000" class=""></path><path d="M0 0v34.856" style="stroke-width:15;stroke-linecap:round;stroke-linejoin:round;stroke-miterlimit:10;stroke-dasharray:none;stroke-opacity:1" transform="translate(123.49 396.816)" fill="none" stroke="#FDA31B" stroke-width="15" stroke-linecap="round" stroke-linejoin="round" stroke-miterlimit="10" stroke-dasharray="none" stroke-opacity="" data-original="#000000" class=""></path></g></g></svg>