<svg xmlns="http://www.w3.org/2000/svg" version="1.1" xmlns:xlink="http://www.w3.org/1999/xlink" xmlns:svgjs="http://svgjs.com/svgjs" width="512" height="512" x="0" y="0" viewBox="0 0 64 64" style="enable-background:new 0 0 512 512" xml:space="preserve" class=""><g><g data-name="24-Education"><path d="M32 23a1.01 1.01 0 0 1-.326-.055l-29-10a1 1 0 0 1 0-1.89l29-10a1 1 0 0 1 .652 0l29 10a1 1 0 0 1 0 1.89l-29 10A1.01 1.01 0 0 1 32 23zM6.067 12 32 20.942 57.933 12 32 3.058z" fill="#FDA31B" data-original="#000000" class=""></path><path d="M32 33c-15.095 0-18.691-5.229-18.837-5.452A1.007 1.007 0 0 1 13 27v-8h2v7.643C15.808 27.5 19.837 31 32 31c12.136 0 16.174-3.479 17-4.36V16h2v11a1.007 1.007 0 0 1-.163.548C50.691 27.771 47.1 33 32 33zM59 12h2v8h-2z" fill="#FDA31B" data-original="#000000" class=""></path><path d="M61.255 31h-2.51a2.748 2.748 0 0 1-2.2-1.066 2.6 2.6 0 0 1-.465-2.258l2.977-8.025a1 1 0 0 1 1.875 0l2.948 7.929a2.635 2.635 0 0 1-.435 2.354A2.748 2.748 0 0 1 61.255 31zM60 22.868l-2.01 5.409a.6.6 0 0 0 .143.434.759.759 0 0 0 .612.289h2.51a.759.759 0 0 0 .612-.289.6.6 0 0 0 .112-.529zM16 36h44v2H16zM12 36h2v2h-2zM26 56H5a5.274 5.274 0 0 1-5-5.5v-9A5.274 5.274 0 0 1 5 36h4v2H5a3.283 3.283 0 0 0-3 3.5v9A3.283 3.283 0 0 0 5 54h21zM41 54h19v2H41z" fill="#FDA31B" data-original="#000000" class=""></path><path d="M60 56a4 4 0 0 1-4-4V40a4 4 0 0 1 8 0v12a4 4 0 0 1-4 4zm0-18a2 2 0 0 0-2 2v12a2 2 0 0 0 4 0V40a2 2 0 0 0-2-2zM38 63a1 1 0 0 1-.447-.1L32 60.118 26.447 62.9A1 1 0 0 1 25 62V50h2v10.382l4.553-2.277a1 1 0 0 1 .894 0L37 60.382V50h2v12a1 1 0 0 1-1 1zM25 37h2v7h-2zM37 37h2v7h-2zM32 50a3 3 0 1 1 3-3 3 3 0 0 1-3 3zm0-4a1 1 0 1 0 1 1 1 1 0 0 0-1-1z" fill="#FDA31B" data-original="#000000" class=""></path><path d="M32 55a2.135 2.135 0 0 1-2.061-1.5.124.124 0 0 0-.086-.076.183.183 0 0 0-.171.023 2.166 2.166 0 0 1-2.609-.012 2.043 2.043 0 0 1-.709-2.385c-.028-.088-.071-.138-.152-.126a2.154 2.154 0 0 1-2.112-1.486 2.066 2.066 0 0 1 .857-2.363v-.15a2.066 2.066 0 0 1-.857-2.363 2.125 2.125 0 0 1 2.054-1.488.386.386 0 0 1 .068 0 .158.158 0 0 0 .135-.061 2.127 2.127 0 0 1 .719-2.45 2.175 2.175 0 0 1 2.611-.012.182.182 0 0 0 .169.023.124.124 0 0 0 .086-.076 2.167 2.167 0 0 1 4.122 0 .124.124 0 0 0 .086.076.186.186 0 0 0 .171-.023 2.171 2.171 0 0 1 2.609.012 2.043 2.043 0 0 1 .709 2.385c.027.088.049.118.152.126a2.15 2.15 0 0 1 2.109 1.488 2.066 2.066 0 0 1-.857 2.363A.089.089 0 0 0 39 47a2.165 2.165 0 0 1 .907 2.438 2.125 2.125 0 0 1-2.054 1.488h-.068a.158.158 0 0 0-.135.061 2.127 2.127 0 0 1-.719 2.45 2.175 2.175 0 0 1-2.611.012.174.174 0 0 0-.169-.023.124.124 0 0 0-.086.076A2.135 2.135 0 0 1 32 55zm-2.209-3.584a2.2 2.2 0 0 1 .688.11 2.132 2.132 0 0 1 1.373 1.388c.006.022.026.086.148.086s.142-.064.148-.086a2.132 2.132 0 0 1 1.373-1.388 2.195 2.195 0 0 1 1.983.314.175.175 0 0 0 .221 0 2.326 2.326 0 0 1 .3-2.014 2.218 2.218 0 0 1 1.821-.9.138.138 0 0 0 .154-.086c.011-.035.014-.054-.047-.093a2.079 2.079 0 0 1 0-3.494c.061-.039.058-.058.047-.093a.134.134 0 0 0-.154-.086 2.242 2.242 0 0 1-1.821-.9 2.062 2.062 0 0 1-.259-1.924c-.086-.128-.167-.16-.255-.092a2.2 2.2 0 0 1-1.985.314 2.132 2.132 0 0 1-1.373-1.388c-.011-.02-.031-.084-.153-.084s-.142.064-.148.086a2.132 2.132 0 0 1-1.373 1.388 2.186 2.186 0 0 1-1.979-.314.173.173 0 0 0-.221 0 2.326 2.326 0 0 1-.295 2.014 2.214 2.214 0 0 1-1.821.9.129.129 0 0 0-.154.086c-.011.035-.014.054.047.093a2.079 2.079 0 0 1 0 3.494c-.061.039-.058.058-.047.093.024.079.09.087.154.086a2.281 2.281 0 0 1 1.821.9 2.062 2.062 0 0 1 .259 1.924c.087.129.167.159.255.092a2.19 2.19 0 0 1 1.293-.426zM8 56H7a3 3 0 0 1-3-3V39a3 3 0 0 1 3-3h3v2H7a1 1 0 0 0-1 1v14a1 1 0 0 0 1 1h1zM56 56h-1a3 3 0 0 1-3-3V39a3 3 0 0 1 3-3h3v2h-3a1 1 0 0 0-1 1v14a1 1 0 0 0 1 1h1z" fill="#FDA31B" data-original="#000000" class=""></path></g></g></svg>